<svg width="211" height="297" viewBox="0 0 211 297" fill="none" xmlns="http://www.w3.org/2000/svg">
<path d="M209 59H2L21 271L105.5 295.5L191 270.5L209 59Z" stroke="black" stroke-width="2.5"/>
<path d="M48.5 181.5L41.5 103H172L169.5 129H70L72.5 155.5H166.5L160.5 235.5L106 251L53 235.5L48.5 195H75L77.5 215.5L106 223.5L135.5 215.5L138 181.5H48.5Z" stroke="black" stroke-width="2.5"/>
<path d="M22 40.5V1.5H35V14H47V1.5H60V40.5H47V27.5H35V40.5H22Z" stroke="black" stroke-width="2.5"/>
<path d="M66 14V1.5H102.5V14H91V40.5H77.5V14H66Z" stroke="black" stroke-width="2.5"/>
<path d="M108.5 40.5V1.5H121.5L130.5 14L139.5 1.5H153V40.5H139.5V21L130.5 35L121.5 21V40.5H108.5Z" stroke="black" stroke-width="2.5"/>
<path d="M160 40.5V1.5H173V27.5H191.5V40.5H160Z" stroke="black" stroke-width="2.5"/>
</svg>
