<?xml version="1.0" encoding="UTF-8"?>
<svg id="_レイヤー_2" data-name="レイヤー 2" xmlns="http://www.w3.org/2000/svg" viewBox="0 0 245.75 161">
  <defs>
    <style>
      .cls-1 {
        fill: none;
        stroke: #000;
        stroke-width: 2px;
      }
    </style>
  </defs>
  <g id="_レイヤー_1-2" data-name="レイヤー 1">
    <g>
      <path class="cls-1" d="m198.17,148h32.96l-.89-1.53-23.94-41.24-.89-1.53-.88,1.53-7.84,13.6h0s-14.8,25.88-14.8,25.88c-5.96,10.05-14.43,15.29-26.11,15.29h-30.48c-1.3,0-2.6-.46-3.84-1.18-1.31-.76-2.48-1.61-3.11-2.7-.62-1.08-.73-2.35-.73-3.88,0-1.53.11-2.8.73-3.88h0s40.49-70.21,40.49-70.21c0,0,0,0,0,0,.69-1.19,1.94-2.46,3.11-3.14h0c1.09-.63,2.33-.74,3.84-.74s2.76.11,3.84.74h0c1.08.62,1.9,1.81,2.67,3.14h0s16.54,28.09,16.54,28.09l.89,1.52.87-1.53,8.27-14.48s0,0,0,0c.69-1.19,1.5-2.02,2.67-2.7,1.24-.72,2.54-1.18,3.84-1.18s3.09.49,4.28,1.18c1.17.68,1.99,1.51,2.67,2.7l28.24,50.83,3,6c.7,1.21,1.14,2.52,1.15,3.8,0,1.28-.45,2.59-1.15,3.8h0c-.62,1.06-1.76,1.9-3.05,2.64h0c-1.22.7-2.49,1.16-3.77,1.16h-45.66l7.04-12Zm-64.22-1.5l-.86,1.5h22.64c3.62,0,6.69-.55,9.4-2.01,2.71-1.47,4.96-3.79,7.02-7.19h0s0-.02,0-.02l10.46-18.37.29-.5-.29-.5-15.79-27.09-.87-1.49-.86,1.5-31.15,54.18Z"/>
      <path class="cls-1" d="m121.38,1h-26.14l-17.5,30.5L60.25,1h-27.86m89.36.1l-44,77.5L32.75,1.1m88.64-.1h30.36l-74,129.5L1.75,1h30.64"/>
    </g>
  </g>
</svg>