<?xml version="1.0" encoding="UTF-8"?>
<svg id="_レイヤー_2" data-name="レイヤー 2" xmlns="http://www.w3.org/2000/svg" viewBox="0 0 291.16 150">
  <defs>
    <style>
      .cls-1 {
        stroke-width: 2px;
      }

      .cls-1, .cls-2 {
        fill: none;
        stroke: #000;
      }

      .cls-2 {
        stroke-width: 1.5px;
      }
    </style>
  </defs>
  <g id="_レイヤー_1-2" data-name="レイヤー 1">
    <g>
      <path class="cls-2" d="m207.07,50.62l1.3-.67-1.3-.67c-8.31-4.26-14.16-12.69-14.16-22.63,0-14.13,11.48-25.65,25.55-25.65h46.41c14.07,0,25.55,11.52,25.55,25.65,0,11.21-7.34,20.52-17.39,23.98l-2.21.76,2.24.67c9.95,2.96,17.36,11.85,17.36,22.74,0,13.28-10.79,24.1-24,24.1-9.18,0-16.96-5.4-20.99-13.09l-1.41.35v33.69c0,14.13-11.48,25.65-25.55,25.65s-25.55-11.52-25.55-25.65c0-9.94,5.85-18.38,14.16-22.63l1.3-.67-1.3-.67c-8.31-4.26-14.16-12.69-14.16-22.63s5.85-18.37,14.16-22.63ZM240,5.75v-.75h-20.92c-11.59,0-20.92,9.37-20.92,21s9.33,21,20.92,21h20.92V5.75Zm4.75-.75h-.75v42h20.92c11.59,0,20.92-9.37,20.92-21s-9.33-21-20.92-21h-20.17Zm-4.75,47.75v-.75h-20.92c-11.59,0-20.92,9.37-20.92,21s9.33,21,20.92,21h20.92v-41.25Zm4.75-.75h-.75v11.14l1.41.35c2.27-4.32,5.73-7.79,10.03-10.07l-.35-1.41h-10.34Zm-4.75,46.75v-.75h-20.86c-11.56,0-20.86,9.34-20.86,20.94s9.3,20.94,20.86,20.94,20.86-9.34,20.86-20.94v-20.19Zm45.99-24.43c0-10.74-8.61-19.39-19.31-19.39s-19.31,8.65-19.31,19.39,8.61,19.39,19.31,19.39,19.31-8.65,19.31-19.39Z"/>
      <path class="cls-1" d="m16.67,1h116.67c8.65,0,15.67,7.01,15.67,15.67v116.67c0,8.65-7.01,15.67-15.67,15.67H16.67c-8.65,0-15.67-7.01-15.67-15.67V16.67C1,8.01,8.01,1,16.67,1Z"/>
      <path class="cls-1" d="m102,41v1m-18.95,22.49c2.65-3.85,6.52-5.76,11.49-5.76,2.86,0,5.36.97,7.46,2.84v-20.57h14v65h-12.22l-.1-.89-.24-2.08c-2.26,2.5-5.04,3.8-8.32,3.8-4.86,0-8.66-1.92-11.26-5.77-2.56-3.79-3.81-9.25-3.86-16.23h0s0-3.38,0-3.38c0-13.45,3.05-16.96,3.05-16.96Zm-27.57,21.61l7.18,18.26.25.63h16.08l-.68-1.43-13.98-29.32,13.66-28.83.67-1.42h-15.91l-.25.63-7.02,17.9-7.02-17.9-.25-.63h-15.91l.68,1.42,13.7,28.83-13.98,29.32-.68,1.43h16.08l.25-.63,7.14-18.26Zm-41.48,50.9V14h123v123H14Zm80.23-44.53c-.78-1.44-1.23-4.18-1.23-8.41v-2.97c0-4.25.49-6.98,1.3-8.41.76-1.33,1.93-2.01,3.68-2.01.95,0,1.73.22,2.39.64.61.39,1.16.98,1.63,1.8v19.08c-.96,1.54-2.28,2.27-4.06,2.27-.94,0-1.69-.18-2.27-.51-.58-.32-1.06-.81-1.43-1.5Z"/>
    </g>
  </g>
</svg>