<svg width="180" height="91" viewBox="0 0 180 91" fill="none" xmlns="http://www.w3.org/2000/svg">
<path d="M139.855 32.4851V31.7351V10.9481V10.1981H140.605H145.225C149.659 10.1981 153.723 12.4409 156.079 16.1968L139.855 32.4851ZM139.855 32.4851H140.605H164.958H166.315L165.593 31.3361L156.08 16.1974L139.855 32.4851ZM65.1518 11.9074L65.1518 11.9073C71.5686 5.36256 80.3548 1.67511 89.524 1.67511H145.225C152.563 1.67511 159.39 5.445 163.299 11.6609L175.26 30.6952C177.867 34.8438 179.25 39.6355 179.25 44.5315V64.8552C179.25 67.6482 176.982 69.9193 174.186 69.9193H161.252H160.452L160.504 70.7179C160.509 70.7887 160.513 70.858 160.518 70.9261C160.54 71.2596 160.561 71.5634 160.561 71.8734C160.561 81.9358 152.407 90.0929 142.341 90.0929C132.282 90.0929 124.122 81.9356 124.122 71.8734C124.122 71.5999 124.141 71.3385 124.162 71.0471C124.17 70.9419 124.178 70.8328 124.185 70.7179L124.237 69.9193H123.437H63.7877H62.9874L63.0392 70.7179C63.0467 70.8328 63.0547 70.9419 63.0623 71.047C63.0836 71.3385 63.1027 71.5999 63.1027 71.8734C63.1027 81.9356 54.9428 90.0929 44.8832 90.0929C34.8172 90.0929 26.6571 81.9354 26.6571 71.8734C26.6571 71.5999 26.6762 71.3385 26.6974 71.0471C26.7051 70.9419 26.7131 70.8329 26.7205 70.7179L26.7723 69.9193H25.9721H5.81507C3.01914 69.9193 0.750977 67.6482 0.750977 64.8552V49.9674C0.750977 43.8237 4.98671 38.4887 10.9764 37.099C10.9765 37.099 10.9766 37.0989 10.9767 37.0989L48.8893 28.3223L49.1024 28.273L49.2556 28.1168L65.1518 11.9074ZM58.1556 31.21L56.9051 32.4851H58.6911H92.8585H92.8589H93.6089V31.7351V10.9481V10.1981H92.8589H89.524C82.6864 10.1981 76.0204 12.9937 71.233 17.8753L58.1556 31.21ZM131.835 32.4851H132.585V31.7351V10.9481V10.1981H131.835H101.622H100.872V10.9481V31.7351V32.4851H101.622H131.835ZM36.5768 71.8734C36.5768 76.4566 40.292 80.1834 44.8832 80.1834C49.4674 80.1834 53.1897 76.4567 53.1897 71.8734C53.1897 67.2856 49.4667 63.5666 44.8832 63.5666C40.2926 63.5666 36.5768 67.2861 36.5768 71.8734ZM134.035 71.8734C134.035 76.457 137.757 80.1834 142.341 80.1834C146.933 80.1834 150.648 76.4562 150.648 71.8734C150.648 67.2861 146.932 63.5666 142.341 63.5666C137.758 63.5666 134.035 67.2856 134.035 71.8734Z" stroke="black" stroke-width="1.5"/>
</svg>
