<svg width="141" height="114" viewBox="0 0 141 114" fill="none" xmlns="http://www.w3.org/2000/svg">
<mask id="path-1-inside-1_20_25" fill="white">
<path d="M49.8019 0.812798C49.6476 0.818709 49.5275 0.861318 49.447 0.937171L35.3827 17.4642L32.5136 27.2239C30.5638 27.1602 28.5504 27.1361 26.4871 27.1361C11.8694 27.1361 0 28.6682 0 30.5673C0 35.0998 52.9668 35.0998 52.9668 30.5673C52.9668 29.1627 46.6259 27.976 37.4827 27.4141L39.7528 19.381L52.9076 3.7246L52.9298 3.70265C53.2251 3.39924 52.6486 2.48859 51.7097 1.69073C51.0055 1.08952 50.265 0.795064 49.8019 0.812798ZM31.434 31.0648L31.3822 31.2185C31.3595 31.2372 31.3601 31.2618 31.3601 31.2843C31.3601 31.5653 32.5067 31.7965 33.9038 31.7965C35.3008 31.7965 36.4549 31.5653 36.4549 31.2843L36.4992 31.1087C36.8665 31.2398 37.0686 31.39 37.0686 31.5623C37.0686 32.0156 35.6496 32.3858 33.8816 32.3671C32.1628 32.3671 30.7389 32.0229 30.7389 31.5697C30.7389 31.3749 31.0213 31.1959 31.434 31.0648ZM52.671 32.3525C45.6632 36.0496 7.3819 36.0746 0.347541 32.4037L3.46062 59.4952C4.81222 55.1762 8.23049 49.3453 12.6298 47.5773C14.0723 46.9929 15.5369 46.9957 16.9112 47.7748C18.1038 48.4228 19.1121 49.7814 19.2257 50.3208C19.5021 51.7255 18.7695 52.2815 18.1979 52.2815C17.5088 52.2815 16.9821 51.2929 16.6376 50.7085C15.6987 49.1316 14.2773 49.0637 12.7629 50.1013C11.1804 51.1801 9.80546 52.9945 8.84382 54.5714C7.67395 56.4706 6.68747 58.5645 6.09307 60.6584C5.74854 61.8683 5.43371 63.8068 5.95996 64.953C6.19091 65.4287 6.53118 65.7285 7.08393 65.7285C8.23108 65.7285 9.89721 64.305 10.6998 63.5483C11.7296 62.5781 13.058 61.0653 13.5615 60.0951L14.7594 56.7516C15.3538 55.2833 17.0221 55.5417 17.0221 56.7516C17.0221 58.9542 16.1797 59.6884 14.7372 64.2433C13.4084 68.4536 12.9921 69.8182 12.9921 69.8182C12.8331 70.4213 12.2128 71.435 11.5502 71.435C11.2738 71.435 11.0722 71.344 10.9586 71.1717C10.7277 70.8682 10.7511 70.0354 10.7738 69.8182C10.8192 69.1289 12.214 65.023 12.4449 64.375C11.9868 64.8507 11.5071 65.3297 10.9808 65.8017C9.74281 66.9029 7.75221 68.3476 6.05609 68.3476C5.27618 68.3476 4.77702 68.1504 4.2962 67.8282L6.03391 85.0137C6.49201 86.0925 15.0176 88.7083 26.2431 88.7083C37.4912 88.7083 46.0094 86.0738 46.4448 85.0137L48.9442 64.5945C47.638 65.7182 46.1291 67.1024 44.4557 67.7916C43.2177 68.2898 40.4701 68.6079 40.4701 66.5552C40.4701 65.4315 42.5565 63.3627 43.768 61.9168C44.0898 61.5497 44.8402 60.644 44.8402 60.1683C44.8402 59.5427 43.4696 59.6872 42.1634 60.7023C41.4289 61.2867 40.7386 62.0679 40.1669 62.8021C39.1826 64.0981 38.6575 65.2165 38.2222 66.1455C36.8024 69.2096 37.2841 68.0019 36.1369 70.8936C34.9898 73.7667 35.1773 73.4395 34.9464 73.9152C34.742 74.3272 34.4421 74.6747 34.0295 74.8882C33.5941 75.1055 32.9992 75.0809 32.6319 74.8224C32.4275 74.6913 32.3287 74.4108 32.3287 74.0249C32.3287 73.8302 32.3573 73.6344 32.4027 73.4397C32.7472 72.1211 34.1904 69.5344 35.8411 66.0358C36.2084 65.2379 36.0678 65.4746 36.0186 65.5383C34.5989 66.8343 33.5195 67.4616 32.7206 67.8063C31.3918 68.3681 29.7413 68.3669 29.4005 66.921C29.3778 66.8349 29.3789 66.7438 29.3562 66.6576C26.653 68.6429 23.7908 69.1831 24.779 64.9091C23.7265 66.6809 21.8887 68.1282 19.6398 68.1282C18.7009 68.1282 18.0136 67.8286 17.6728 67.0308C17.1466 65.8433 17.9695 63.8092 18.7229 61.8875C19.1128 60.9174 19.6453 59.7502 20.3571 58.3904C20.7243 57.6563 21.3148 57.2226 22.0948 57.4174C22.2311 57.4624 22.3509 57.5074 22.4645 57.571C23.0589 57.9606 22.8301 58.5377 22.531 59.1221C21.6603 60.7403 20.905 61.9285 20.4014 63.6141C20.197 64.3258 19.9389 65.5602 20.7416 65.5602C21.2905 65.5602 21.8167 65.3854 22.324 65.0408C23.3765 64.3066 24.2241 63.2078 24.8677 62.129C25.3258 61.3536 25.878 60.3385 26.1543 59.4732C26.2679 59.1061 26.4094 58.7602 26.5684 58.4343C26.8221 57.8949 27.1608 57.3369 27.7589 57.3369C28.058 57.3369 28.3055 57.4453 28.491 57.6588C28.881 58.1346 28.7954 58.6233 28.5871 59.144C28.129 60.3539 27.512 61.436 27.0047 62.7508C26.7056 63.5075 26.3836 64.477 26.3836 65.2749C26.3836 66.0091 27.232 65.8344 27.9438 65.531C28.4928 65.295 29.0422 64.9323 29.504 64.5652C29.7804 63.5089 29.7072 63.7425 35.5527 49.8379C35.8518 49.1262 36.4013 48.821 36.9503 48.821C37.2267 48.821 37.4514 48.9126 37.6824 49.0624C38.0723 49.3434 38.078 49.9407 37.919 50.394C37.76 50.806 37.7772 50.6767 36.8838 52.6619C35.6912 55.2728 34.9157 57.1564 33.8594 59.5537C33.424 60.5464 32.0974 63.6335 31.8703 64.3677C31.734 64.8434 31.5695 65.6187 32.0995 65.6187C33.3375 65.6187 36.5232 62.7889 37.394 61.9461C37.4394 61.8824 37.5102 61.8593 37.601 61.8144C37.7373 61.4023 37.872 61.0187 37.9855 60.6292C38.3073 59.8088 38.6074 58.8524 39.2056 58.1856C39.3874 57.9683 39.5922 57.8417 39.8194 57.8417C40.4592 57.8417 40.7807 58.0982 40.7807 58.705C40.7807 58.941 40.6239 59.8079 40.5292 60.0439C40.851 59.7217 41.1898 59.4003 41.5571 59.0782C44.9948 56.0777 47.4431 57.6087 47.4431 59.1221C47.4431 60.7178 45.4063 62.9378 44.2856 64.1702C43.9184 64.5822 43.1622 65.3356 43.1395 65.5529C43.1395 65.8338 43.3432 65.948 43.6423 65.948C44.1004 65.948 45.1089 65.1895 45.4762 64.931C46.6233 64.0882 48.1752 62.794 49.2769 61.8875L52.671 32.3525ZM7.30577 87.0842L10.722 92.5712L12.053 109.713C12.053 111.634 18.536 113.188 26.5093 113.188C34.4826 113.188 40.9655 111.634 40.9655 109.713L42.0229 92.3956L45.2469 87.0842C36.1719 90.6914 16.748 90.8188 7.30577 87.0842Z"/>
</mask>
<path d="M3.15132 57.0303L4.15132 68.5303L4.84868 68.4697L3.84868 56.9697L3.15132 57.0303ZM49.8019 0.812798L49.8287 1.51229L49.8287 1.51229L49.8019 0.812798ZM49.447 0.937171L48.9668 0.427854L48.9388 0.45423L48.9139 0.483512L49.447 0.937171ZM35.3827 17.4642L34.8496 17.0106L34.7531 17.124L34.7111 17.2668L35.3827 17.4642ZM32.5136 27.2239L32.4908 27.9235L33.0324 27.9412L33.1852 27.4213L32.5136 27.2239ZM26.4871 27.1361L26.4871 27.8361H26.4871V27.1361ZM37.4827 27.4141L36.8091 27.2237L36.5729 28.0595L37.4398 28.1128L37.4827 27.4141ZM39.7528 19.381L39.2169 18.9307L39.1201 19.0459L39.0792 19.1907L39.7528 19.381ZM52.9076 3.7246L52.4153 3.22696L52.3924 3.24963L52.3717 3.2743L52.9076 3.7246ZM52.9298 3.70265L53.4222 4.20038L53.4314 4.19088L52.9298 3.70265ZM51.7097 1.69073L51.2552 2.2231L51.2564 2.22415L51.7097 1.69073ZM31.434 31.0648L32.0974 31.2883L32.5383 29.9795L31.2221 30.3977L31.434 31.0648ZM31.3822 31.2185L31.8276 31.7586L31.9818 31.6314L32.0456 31.442L31.3822 31.2185ZM36.4549 31.2843L35.7762 31.1128L35.7549 31.1973V31.2843H36.4549ZM36.4992 31.1087L36.7346 30.4495L36.0092 30.1905L35.8206 30.9373L36.4992 31.1087ZM33.8816 32.3671L33.889 31.6671H33.8816V32.3671ZM52.671 32.3525L53.3664 32.4324L53.5179 31.1142L52.3444 31.7334L52.671 32.3525ZM0.347541 32.4037L0.671395 31.7831L-0.498532 31.1726L-0.347882 32.4836L0.347541 32.4037ZM3.46062 59.4952L2.7652 59.5751L4.12868 59.7042L3.46062 59.4952ZM12.6298 47.5773L12.8908 48.2268L12.8926 48.226L12.6298 47.5773ZM16.9112 47.7748L16.5659 48.3838L16.577 48.3899L16.9112 47.7748ZM19.2257 50.3208L19.9126 50.1856L19.9107 50.1766L19.2257 50.3208ZM16.6376 50.7085L17.2406 50.353L17.2391 50.3504L16.6376 50.7085ZM12.7629 50.1013L13.1572 50.6797L13.1586 50.6788L12.7629 50.1013ZM8.84382 54.5714L9.43983 54.9386L9.44147 54.9359L8.84382 54.5714ZM6.09307 60.6584L6.7663 60.8501L6.76646 60.8496L6.09307 60.6584ZM5.95996 64.953L5.32381 65.245L5.32695 65.2519L5.33025 65.2587L5.95996 64.953ZM10.6998 63.5483L10.2198 63.0388L10.2197 63.0389L10.6998 63.5483ZM13.5615 60.0951L14.1828 60.4176L14.2046 60.3757L14.2205 60.3312L13.5615 60.0951ZM14.7594 56.7516L14.1106 56.489L14.1052 56.5022L14.1004 56.5155L14.7594 56.7516ZM14.7372 64.2433L14.0699 64.032L14.0697 64.0326L14.7372 64.2433ZM12.9921 69.8182L12.3226 69.614L12.3187 69.6268L12.3153 69.6397L12.9921 69.8182ZM10.9586 71.1717L11.5431 70.7864L11.53 70.7666L11.5156 70.7477L10.9586 71.1717ZM10.7738 69.8182L11.47 69.891L11.4714 69.8776L11.4723 69.8642L10.7738 69.8182ZM12.4449 64.375L13.1043 64.61L11.9407 63.8895L12.4449 64.375ZM10.9808 65.8017L11.4461 66.3247L11.4482 66.3228L10.9808 65.8017ZM4.2962 67.8282L4.68583 67.2467L3.45012 66.4188L3.59975 67.8986L4.2962 67.8282ZM6.03391 85.0137L5.33746 85.0841L5.34813 85.1897L5.3896 85.2873L6.03391 85.0137ZM46.4448 85.0137L47.0923 85.2797L47.1282 85.1924L47.1397 85.0988L46.4448 85.0137ZM48.9442 64.5945L49.639 64.6795L49.8587 62.8842L48.4876 64.0639L48.9442 64.5945ZM44.4557 67.7916L44.7171 68.441L44.7223 68.4389L44.4557 67.7916ZM43.768 61.9168L43.2417 61.4554L43.2365 61.4612L43.2315 61.4672L43.768 61.9168ZM42.1634 60.7023L41.7338 60.1496L41.7276 60.1545L42.1634 60.7023ZM40.1669 62.8021L39.6146 62.372L39.6095 62.3787L40.1669 62.8021ZM38.2222 66.1455L37.5883 65.8484L37.587 65.8512L38.2222 66.1455ZM36.1369 70.8936L36.787 71.1532L36.7876 71.1518L36.1369 70.8936ZM34.9464 73.9152L35.5735 74.2263L35.5761 74.2209L34.9464 73.9152ZM34.0295 74.8882L34.3421 75.5147L34.3511 75.51L34.0295 74.8882ZM32.6319 74.8224L33.0348 74.2499L33.0225 74.2413L33.0098 74.2331L32.6319 74.8224ZM32.4027 73.4397L31.7254 73.2627L31.7231 73.2716L31.721 73.2806L32.4027 73.4397ZM35.8411 66.0358L36.4742 66.3345L36.477 66.3284L35.8411 66.0358ZM36.0186 65.5383L36.4905 66.0553L36.5353 66.0143L36.5724 65.9663L36.0186 65.5383ZM32.7206 67.8063L32.9933 68.451L32.9979 68.449L32.7206 67.8063ZM29.4005 66.921L30.0819 66.7604L30.0797 66.7515L30.0774 66.7425L29.4005 66.921ZM29.3562 66.6576L30.033 66.4792L29.7708 65.4846L28.9418 66.0934L29.3562 66.6576ZM24.779 64.9091L25.461 65.0668L24.1771 64.5516L24.779 64.9091ZM17.6728 67.0308L18.3167 66.7558L18.3128 66.7471L17.6728 67.0308ZM18.7229 61.8875L18.0733 61.6265L18.0712 61.632L18.7229 61.8875ZM20.3571 58.3904L20.9773 58.7151L20.9831 58.7036L20.3571 58.3904ZM22.0948 57.4174L22.314 56.7526L22.2895 56.7445L22.2644 56.7383L22.0948 57.4174ZM22.4645 57.571L22.8482 56.9856L22.8279 56.9723L22.8068 56.9605L22.4645 57.571ZM22.531 59.1221L23.1475 59.4538L23.1509 59.4474L23.1542 59.441L22.531 59.1221ZM20.4014 63.6141L19.7307 63.4138L19.7286 63.4209L20.4014 63.6141ZM22.324 65.0408L22.7174 65.6199L22.7245 65.6149L22.324 65.0408ZM24.8677 62.129L25.4688 62.4876L25.4704 62.485L24.8677 62.129ZM26.1543 59.4732L26.8212 59.6862L26.8231 59.6801L26.1543 59.4732ZM26.5684 58.4343L27.1976 58.7413L27.2019 58.7322L26.5684 58.4343ZM28.491 57.6588L29.0324 57.2151L29.026 57.2073L29.0194 57.1997L28.491 57.6588ZM28.5871 59.144L27.9371 58.884L27.9325 58.8961L28.5871 59.144ZM27.0047 62.7508L27.6557 63.0082L27.6578 63.0028L27.0047 62.7508ZM27.9438 65.531L28.2183 66.1749L28.2203 66.174L27.9438 65.531ZM29.504 64.5652L29.9396 65.1132L30.1222 64.9681L30.1812 64.7424L29.504 64.5652ZM35.5527 49.8379L36.198 50.1092L36.1981 50.1091L35.5527 49.8379ZM37.6824 49.0624L38.0915 48.4945L38.0777 48.4845L38.0633 48.4752L37.6824 49.0624ZM37.919 50.394L38.572 50.646L38.5759 50.6359L38.5795 50.6257L37.919 50.394ZM36.8838 52.6619L37.5205 52.9528L37.5221 52.9492L36.8838 52.6619ZM33.8594 59.5537L33.2188 59.2715L33.2184 59.2725L33.8594 59.5537ZM31.8703 64.3677L31.2016 64.1608L31.1994 64.1678L31.1974 64.1749L31.8703 64.3677ZM37.394 61.9461L37.8808 62.4491L37.9267 62.4046L37.9638 62.3526L37.394 61.9461ZM37.601 61.8144L37.9114 62.4418L38.1737 62.312L38.2656 62.0342L37.601 61.8144ZM37.9855 60.6292L37.3339 60.3735L37.3223 60.4029L37.3135 60.4332L37.9855 60.6292ZM39.2056 58.1856L39.7267 58.6531L39.7348 58.644L39.7426 58.6347L39.2056 58.1856ZM40.5292 60.0439L39.8795 59.7833L41.0245 60.5386L40.5292 60.0439ZM41.5571 59.0782L41.0968 58.5508L41.0955 58.5519L41.5571 59.0782ZM44.2856 64.1702L43.7677 63.6992L43.7631 63.7044L44.2856 64.1702ZM43.1395 65.5529L42.4433 65.4801L42.4395 65.5164V65.5529H43.1395ZM45.4762 64.931L45.879 65.5035L45.8849 65.4994L45.8906 65.4952L45.4762 64.931ZM49.2769 61.8875L49.7217 62.4281L49.9401 62.2484L49.9724 61.9675L49.2769 61.8875ZM7.30577 87.0842L7.56323 86.4332L5.59 85.6528L6.71153 87.4541L7.30577 87.0842ZM10.722 92.5712L11.4199 92.517L11.4067 92.3465L11.3163 92.2013L10.722 92.5712ZM12.053 109.713H12.753V109.686L12.7509 109.659L12.053 109.713ZM40.9655 109.713L40.2668 109.67L40.2655 109.691V109.713H40.9655ZM42.0229 92.3956L41.4245 92.0324L41.3348 92.1803L41.3242 92.353L42.0229 92.3956ZM45.2469 87.0842L45.8453 87.4474L46.9288 85.6624L44.9884 86.4337L45.2469 87.0842ZM49.7752 0.113311C49.5152 0.123268 49.2099 0.198639 48.9668 0.427854L49.9272 1.44649C49.845 1.524 49.78 1.51415 49.8287 1.51229L49.7752 0.113311ZM48.9139 0.483512L34.8496 17.0106L35.9158 17.9179L49.9801 1.39083L48.9139 0.483512ZM34.7111 17.2668L31.842 27.0265L33.1852 27.4213L36.0543 17.6617L34.7111 17.2668ZM32.5365 26.5243C30.577 26.4603 28.5557 26.4361 26.4871 26.4361V27.8361C28.5452 27.8361 30.5507 27.8602 32.4908 27.9235L32.5365 26.5243ZM26.4871 26.4361C19.158 26.4361 12.5048 26.82 7.67208 27.4453C5.26078 27.7574 3.27498 28.1329 1.87803 28.5607C1.18465 28.773 0.594818 29.0104 0.16401 29.2833C-0.225891 29.5302 -0.7 29.9441 -0.7 30.5673H0.7C0.7 30.7158 0.59681 30.6664 0.913118 30.466C1.18852 30.2916 1.64019 30.0977 2.28796 29.8993C3.57333 29.5057 5.46849 29.1422 7.85175 28.8338C12.6082 28.2183 19.1985 27.8361 26.4871 27.8361L26.4871 26.4361ZM-0.7 30.5673C-0.7 31.2232 -0.224081 31.6715 0.21795 31.9539C0.688159 32.2544 1.3308 32.5068 2.07885 32.7262C3.58532 33.1682 5.70157 33.5277 8.19671 33.8123C13.1981 34.383 19.8475 34.6667 26.4834 34.6667C33.1193 34.6667 39.7687 34.383 44.7701 33.8123C47.2652 33.5277 49.3815 33.1682 50.8879 32.7262C51.636 32.5068 52.2786 32.2544 52.7488 31.9539C53.1909 31.6715 53.6668 31.2232 53.6668 30.5673H52.2668C52.2668 30.4781 52.3289 30.5609 51.9951 30.7742C51.6894 30.9695 51.1941 31.1774 50.4938 31.3829C49.1036 31.7907 47.0819 32.1395 44.6114 32.4214C39.6815 32.9839 33.0892 33.2667 26.4834 33.2667C19.8776 33.2667 13.2853 32.9839 8.35541 32.4214C5.88492 32.1395 3.86314 31.7907 2.47298 31.3829C1.77272 31.1774 1.27741 30.9695 0.971734 30.7742C0.637884 30.5609 0.7 30.4781 0.7 30.5673H-0.7ZM53.6668 30.5673C53.6668 30.1074 53.4049 29.7597 53.1384 29.5257C52.8685 29.2886 52.5097 29.0903 52.1101 28.9182C51.3052 28.5715 50.1703 28.2626 48.7899 27.9881C46.0177 27.4369 42.1114 26.9972 37.5256 26.7154L37.4398 28.1128C41.9971 28.3929 45.8329 28.8275 48.5169 29.3612C49.8646 29.6292 50.8864 29.9155 51.5563 30.204C51.894 30.3494 52.1019 30.4787 52.2145 30.5775C52.3306 30.6795 52.2668 30.6761 52.2668 30.5673H53.6668ZM38.1563 27.6045L40.4264 19.5714L39.0792 19.1907L36.8091 27.2237L38.1563 27.6045ZM40.2888 19.8313L53.4436 4.17491L52.3717 3.2743L39.2169 18.9307L40.2888 19.8313ZM53.3999 4.22224L53.4221 4.20029L52.4375 3.20502L52.4153 3.22696L53.3999 4.22224ZM53.4314 4.19088C53.7317 3.88239 53.7318 3.49127 53.683 3.23951C53.6334 2.98297 53.5131 2.73384 53.3789 2.51553C53.1055 2.0707 52.6714 1.58935 52.163 1.15731L51.2564 2.22415C51.6869 2.58997 52.0106 2.96288 52.1863 3.24869C52.2766 3.39571 52.3038 3.481 52.3085 3.50547C52.3142 3.53473 52.2756 3.37121 52.4282 3.21443L53.4314 4.19088ZM52.1642 1.15836C51.7645 0.81706 51.3462 0.555542 50.9487 0.379575C50.5619 0.208331 50.151 0.0989163 49.7751 0.113311L49.8287 1.51229C49.9159 1.50895 50.1068 1.53789 50.382 1.65975C50.6466 1.77688 50.9508 1.96319 51.2552 2.2231L52.1642 1.15836ZM30.7706 30.8413L30.7189 30.995L32.0456 31.442L32.0974 31.2883L30.7706 30.8413ZM30.9369 30.6784C30.7919 30.798 30.7147 30.9498 30.6818 31.0871C30.6674 31.1476 30.663 31.1987 30.6613 31.2302C30.6605 31.2463 30.6602 31.2598 30.6601 31.2685C30.6601 31.2729 30.6601 31.2767 30.6601 31.2793C30.6601 31.2806 30.6601 31.2817 30.6601 31.2825C30.6601 31.2835 30.6601 31.2838 30.6601 31.2843H32.0601C32.0601 31.2507 32.0637 31.328 32.0434 31.4129C32.016 31.5276 31.9499 31.6577 31.8276 31.7586L30.9369 30.6784ZM30.6601 31.2843C30.6601 31.5755 30.8115 31.7791 30.9236 31.8884C31.0349 31.9969 31.1616 32.0683 31.2617 32.1156C31.4657 32.2121 31.7162 32.2809 31.9698 32.332C32.4885 32.4364 33.1727 32.4965 33.9038 32.4965V31.0965C33.2378 31.0965 32.6502 31.0409 32.2462 30.9595C32.0386 30.9177 31.9151 30.876 31.8604 30.8501C31.8312 30.8363 31.8574 30.8435 31.9006 30.8856C31.9445 30.9284 32.0601 31.0634 32.0601 31.2843H30.6601ZM33.9038 32.4965C34.6348 32.4965 35.3207 32.4364 35.8409 32.3321C36.0953 32.281 36.3464 32.2124 36.5508 32.1163C36.651 32.0691 36.7779 31.9979 36.8896 31.8898C37.0017 31.7812 37.1549 31.5771 37.1549 31.2843H35.7549C35.7549 31.0618 35.872 30.9264 35.9155 30.8842C35.9586 30.8425 35.9844 30.8355 35.9547 30.8495C35.899 30.8757 35.7743 30.9175 35.5655 30.9594C35.1594 31.0409 34.5697 31.0965 33.9038 31.0965V32.4965ZM37.1335 31.4558L37.1779 31.2802L35.8206 30.9373L35.7762 31.1128L37.1335 31.4558ZM36.2639 31.768C36.336 31.7937 36.3907 31.8171 36.4307 31.8371C36.4504 31.8469 36.465 31.8551 36.4753 31.8614C36.4803 31.8645 36.484 31.867 36.4866 31.8687C36.4891 31.8705 36.4903 31.8714 36.4902 31.8713C36.4902 31.8713 36.4887 31.8702 36.4861 31.8678C36.4835 31.8655 36.4796 31.8617 36.4746 31.8564C36.4649 31.8461 36.45 31.8283 36.4342 31.8025C36.4001 31.7469 36.3686 31.6637 36.3686 31.5623H37.7686C37.7686 31.1715 37.5333 30.9099 37.3531 30.7688C37.1709 30.6263 36.948 30.5257 36.7346 30.4495L36.2639 31.768ZM36.3686 31.5623C36.3686 31.2874 36.5704 31.2137 36.4543 31.2846C36.3783 31.331 36.2213 31.3981 35.9651 31.4634C35.4631 31.5915 34.7296 31.6761 33.889 31.6671L33.8742 33.0671C34.8016 33.0769 35.6617 32.9857 36.3112 32.82C36.6307 32.7385 36.9389 32.6291 37.1842 32.4793C37.3895 32.3539 37.7686 32.0639 37.7686 31.5623H36.3686ZM33.8816 31.6671C33.0612 31.6671 32.3355 31.5843 31.8355 31.4592C31.58 31.3954 31.4236 31.3302 31.3479 31.2849C31.2315 31.2153 31.4389 31.2903 31.4389 31.5697H30.0389C30.0389 32.0756 30.4243 32.3637 30.6287 32.486C30.8736 32.6327 31.1806 32.7386 31.4959 32.8174C32.1375 32.9778 32.9831 33.0671 33.8816 33.0671V31.6671ZM31.4389 31.5697C31.4389 31.6987 31.3904 31.79 31.3596 31.8332C31.332 31.872 31.3136 31.8805 31.3329 31.867C31.3498 31.8552 31.3837 31.8348 31.44 31.8093C31.4951 31.7844 31.5638 31.7581 31.646 31.732L31.2221 30.3977C30.9822 30.4739 30.734 30.5774 30.5305 30.7198C30.3563 30.8416 30.0389 31.1176 30.0389 31.5697H31.4389ZM52.3444 31.7334C51.5607 32.1468 50.2775 32.5361 48.5615 32.8804C46.8606 33.2217 44.7875 33.5088 42.4591 33.7399C37.8033 34.2019 32.1651 34.4364 26.5186 34.4411C20.8722 34.4459 15.2322 34.2209 10.573 33.7676C8.24292 33.5408 6.16757 33.2579 4.46403 32.9204C2.74551 32.58 1.45881 32.194 0.671395 31.7831L0.023688 33.0243C0.994858 33.5311 2.44321 33.9473 4.19199 34.2937C5.95575 34.6431 8.07995 34.9316 10.4374 35.161C15.1534 35.6198 20.8406 35.8459 26.5198 35.8411C32.199 35.8363 37.8846 35.6007 42.5974 35.133C44.9532 34.8992 47.0755 34.6065 48.8369 34.253C50.5833 33.9027 52.0293 33.4825 52.9976 32.9716L52.3444 31.7334ZM-0.347882 32.4836L2.7652 59.5751L4.15605 59.4153L1.04297 32.3238L-0.347882 32.4836ZM4.12868 59.7042C4.7838 57.6108 5.94459 55.1401 7.4733 52.9846C9.00891 50.8193 10.8672 49.04 12.8908 48.2268L12.3688 46.9278C9.99306 47.8825 7.9426 49.9027 6.33134 52.1747C4.71318 54.4564 3.48904 57.0606 2.79257 59.2861L4.12868 59.7042ZM12.8926 48.226C14.1673 47.7097 15.4043 47.7252 16.566 48.3837L17.2564 47.1658C15.6695 46.2661 13.9773 46.2761 12.367 46.9285L12.8926 48.226ZM16.577 48.3899C17.0759 48.6609 17.5617 49.0977 17.94 49.5422C18.1268 49.7617 18.2779 49.9721 18.385 50.149C18.4385 50.2374 18.4779 50.3124 18.5049 50.3719C18.5182 50.4013 18.5274 50.4246 18.5334 50.4418C18.5396 50.4594 18.5411 50.4668 18.5407 50.465L19.9107 50.1766C19.8578 49.9256 19.725 49.6591 19.5827 49.4241C19.4315 49.1743 19.2347 48.9034 19.0062 48.6349C18.5537 48.1032 17.9392 47.5367 17.2454 47.1597L16.577 48.3899ZM18.5389 50.4559C18.6516 51.0288 18.5377 51.3101 18.4562 51.4267C18.3714 51.5479 18.2628 51.5815 18.1979 51.5815V52.9815C18.7046 52.9815 19.2481 52.7371 19.6034 52.2291C19.962 51.7165 20.0762 51.0175 19.9125 50.1857L18.5389 50.4559ZM18.1979 51.5815C18.1922 51.5815 18.0701 51.5653 17.8312 51.272C17.6129 51.004 17.4286 50.6718 17.2406 50.353L16.0346 51.0641C16.1912 51.3297 16.4425 51.7839 16.7458 52.1563C17.0287 52.5035 17.5145 52.9815 18.1979 52.9815V51.5815ZM17.2391 50.3504C16.6888 49.4263 15.9313 48.8482 15.0046 48.7301C14.1083 48.6158 13.2018 48.952 12.3673 49.5239L13.1586 50.6788C13.8384 50.213 14.3998 50.0643 14.8276 50.1188C15.2248 50.1695 15.6475 50.4138 16.0362 51.0667L17.2391 50.3504ZM12.3686 49.5229C10.6631 50.6855 9.22569 52.6007 8.24617 54.207L9.44147 54.9359C10.3852 53.3882 11.6976 51.6747 13.1572 50.6797L12.3686 49.5229ZM8.24783 54.2043C7.05155 56.1463 6.03511 58.2992 5.41967 60.4673L6.76646 60.8496C7.33982 58.8298 8.29636 56.7948 9.43982 54.9386L8.24783 54.2043ZM5.41983 60.4667C5.23763 61.1066 5.06196 61.9419 5.00177 62.7794C4.94298 63.5976 4.98677 64.511 5.32381 65.245L6.59612 64.6609C6.40691 64.2488 6.34499 63.6198 6.39817 62.8798C6.44997 62.159 6.60398 61.4202 6.7663 60.8501L5.41983 60.4667ZM5.33025 65.2587C5.47757 65.5622 5.68406 65.8609 5.98693 66.0833C6.29989 66.3132 6.67113 66.4285 7.08393 66.4285V65.0285C6.94397 65.0285 6.8687 64.9939 6.8156 64.9549C6.75242 64.9085 6.6733 64.8195 6.58968 64.6473L5.33025 65.2587ZM7.08393 66.4285C7.5059 66.4285 7.92622 66.3003 8.302 66.1349C8.68415 65.9667 9.06369 65.7405 9.41559 65.5004C10.119 65.0205 10.7664 64.4476 11.18 64.0576L10.2197 63.0389C9.83067 63.4057 9.24367 63.9229 8.62657 64.3439C8.31821 64.5543 8.01597 64.7312 7.738 64.8536C7.45366 64.9787 7.23554 65.0285 7.08393 65.0285V66.4285ZM11.1798 64.0578C12.2239 63.0742 13.6233 61.4956 14.1828 60.4176L12.9402 59.7726C12.4927 60.6349 11.2353 62.0821 10.2198 63.0388L11.1798 64.0578ZM14.2205 60.3312L15.4184 56.9877L14.1004 56.5155L12.9025 59.859L14.2205 60.3312ZM15.4083 57.0143C15.6087 56.5191 15.9196 56.436 16.0678 56.4458C16.1535 56.4514 16.2131 56.4842 16.2488 56.5212C16.2798 56.5532 16.3221 56.618 16.3221 56.7516H17.7221C17.7221 55.7579 16.9986 55.104 16.1596 55.0488C15.325 54.9939 14.5045 55.5158 14.1106 56.489L15.4083 57.0143ZM16.3221 56.7516C16.3221 57.7338 16.1421 58.3781 15.7663 59.3666C15.384 60.372 14.7991 61.7293 14.0699 64.032L15.4046 64.4547C16.1178 62.2024 16.6753 60.9151 17.0749 59.8641C17.4809 58.7961 17.7221 57.972 17.7221 56.7516H16.3221ZM14.0697 64.0326C13.405 66.1385 12.9685 67.533 12.698 68.4015C12.5628 68.8357 12.469 69.1384 12.4091 69.3328C12.3791 69.4299 12.3575 69.5 12.3434 69.5459C12.3364 69.5689 12.3312 69.5858 12.3278 69.597C12.3261 69.6026 12.3248 69.6068 12.3239 69.6096C12.3235 69.611 12.3232 69.6121 12.3229 69.6128C12.3228 69.6132 12.3227 69.6134 12.3227 69.6136C12.3227 69.6137 12.3226 69.6138 12.3226 69.6139C12.3226 69.6139 12.3226 69.6139 12.3226 69.6139C12.3226 69.6139 12.3226 69.614 12.9921 69.8182C13.6617 70.0224 13.6617 70.0224 13.6617 70.0224C13.6617 70.0224 13.6617 70.0224 13.6617 70.0224C13.6617 70.0224 13.6617 70.0223 13.6617 70.0222C13.6618 70.0221 13.6618 70.0219 13.6619 70.0216C13.6621 70.0209 13.6624 70.02 13.6628 70.0187C13.6636 70.0161 13.6648 70.0121 13.6665 70.0067C13.6698 69.9958 13.6749 69.9793 13.6818 69.9567C13.6957 69.9116 13.717 69.8422 13.7468 69.7456C13.8064 69.5525 13.8998 69.251 14.0347 68.8178C14.3045 67.9514 14.7405 66.5585 15.4048 64.454L14.0697 64.0326ZM12.3153 69.6397C12.2616 69.8432 12.112 70.1621 11.9091 70.4209C11.6788 70.7147 11.5398 70.735 11.5502 70.735V72.135C12.2232 72.135 12.7256 71.6485 13.0109 71.2846C13.3236 70.8858 13.5636 70.3963 13.669 69.9967L12.3153 69.6397ZM11.5502 70.735C11.4866 70.735 11.4688 70.7243 11.479 70.7289C11.4847 70.7314 11.4959 70.7374 11.5091 70.7485C11.5226 70.7597 11.5342 70.7729 11.5431 70.7864L10.3742 71.5569C10.6573 71.9865 11.1219 72.135 11.5502 72.135V70.735ZM11.5156 70.7477C11.544 70.7849 11.5306 70.7855 11.5096 70.6987C11.4916 70.6239 11.4776 70.5252 11.4692 70.411C11.4521 70.1796 11.4629 69.9587 11.47 69.891L10.0776 69.7454C10.0619 69.8949 10.0497 70.1991 10.073 70.5142C10.0848 70.6734 10.1068 70.8532 10.1486 71.0268C10.1875 71.1882 10.2578 71.4067 10.4016 71.5956L11.5156 70.7477ZM11.4723 69.8642C11.4722 69.8651 11.4727 69.8584 11.475 69.8422C11.4772 69.8267 11.4806 69.806 11.4855 69.7796C11.4955 69.7264 11.5102 69.6586 11.53 69.5758C11.5696 69.4103 11.6256 69.2017 11.6946 68.9606C11.8324 68.4791 12.0156 67.8891 12.2063 67.2951C12.5878 66.107 12.9918 64.9257 13.1043 64.61L11.7856 64.14C11.6671 64.4724 11.2583 65.668 10.8733 66.8672C10.6808 67.4669 10.4923 68.0731 10.3486 68.5755C10.2768 68.8263 10.2146 69.0567 10.1684 69.2501C10.1255 69.4295 10.0853 69.6206 10.0753 69.7721L11.4723 69.8642ZM11.9407 63.8895C11.4889 64.3587 11.0222 64.8243 10.5135 65.2805L11.4482 66.3228C11.992 65.8351 12.4848 65.3428 12.9492 64.8606L11.9407 63.8895ZM10.5156 65.2786C9.91827 65.81 9.15018 66.414 8.34037 66.8813C7.51708 67.3564 6.72321 67.6476 6.05609 67.6476V69.0476C7.0851 69.0476 8.13458 68.6165 9.04013 68.0939C9.95915 67.5636 10.8054 66.8946 11.4461 66.3247L10.5156 65.2786ZM6.05609 67.6476C5.42648 67.6476 5.06137 67.4983 4.68583 67.2467L3.90658 68.4098C4.49268 68.8024 5.12589 69.0476 6.05609 69.0476V67.6476ZM3.59975 67.8986L5.33746 85.0841L6.73036 84.9433L4.99265 67.7578L3.59975 67.8986ZM5.3896 85.2873C5.47841 85.4965 5.6293 85.6532 5.75419 85.7616C5.88814 85.8779 6.04804 85.9859 6.22004 86.0865C6.56465 86.288 7.01802 86.4943 7.55648 86.7C8.6374 87.1129 10.1323 87.55 11.9506 87.9493C15.5905 88.7486 20.5786 89.4083 26.2431 89.4083V88.0083C20.6821 88.0083 15.7947 87.3601 12.2509 86.5819C10.4774 86.1924 9.05334 85.7732 8.05607 85.3922C7.55544 85.201 7.17989 85.026 6.92672 84.8779C6.79983 84.8037 6.71862 84.7449 6.67188 84.7043C6.61608 84.6559 6.64667 84.6658 6.67822 84.7401L5.3896 85.2873ZM26.2431 89.4083C31.9192 89.4083 36.9113 88.7439 40.5494 87.9421C42.3668 87.5416 43.8592 87.104 44.9365 86.692C45.473 86.4868 45.9243 86.2813 46.2666 86.081C46.4374 85.9811 46.5964 85.8737 46.7294 85.7579C46.8528 85.6505 47.005 85.4924 47.0923 85.2797L45.7973 84.7478C45.8303 84.6675 45.8649 84.6543 45.8102 84.7019C45.7651 84.7412 45.6855 84.799 45.5597 84.8726C45.3088 85.0194 44.9353 85.1936 44.4363 85.3844C43.4425 85.7645 42.0207 86.1843 40.2481 86.575C36.7062 87.3555 31.8151 88.0083 26.2431 88.0083V89.4083ZM47.1397 85.0988L49.639 64.6795L48.2494 64.5094L45.75 84.9287L47.1397 85.0988ZM48.4876 64.0639C47.1424 65.2212 45.7326 66.5086 44.1891 67.1444L44.7223 68.4389C46.5256 67.6961 48.1336 66.2153 49.4007 65.1251L48.4876 64.0639ZM44.1944 67.1422C43.6575 67.3583 42.7854 67.5308 42.0932 67.4364C41.7524 67.39 41.5239 67.2882 41.3889 67.1658C41.2757 67.0633 41.1701 66.8956 41.1701 66.5552H39.7701C39.7701 67.2412 40.0079 67.8035 40.4486 68.2031C40.8675 68.5828 41.4032 68.7553 41.9041 68.8236C42.8952 68.9588 44.0159 68.7232 44.717 68.441L44.1944 67.1422ZM41.1701 66.5552C41.1701 66.4631 41.2233 66.2553 41.4224 65.9076C41.6105 65.5793 41.8832 65.2029 42.2106 64.795C42.5361 64.3896 42.901 63.971 43.2665 63.5566C43.6277 63.1472 43.9942 62.7368 44.3046 62.3664L43.2315 61.4672C42.9361 61.8198 42.5874 62.2102 42.2167 62.6304C41.8503 63.0457 41.4665 63.4856 41.1189 63.9186C40.7732 64.3491 40.4486 64.791 40.2076 65.2118C39.9777 65.6132 39.7701 66.0854 39.7701 66.5552H41.1701ZM44.2944 62.3782C44.4624 62.1866 44.7512 61.8446 45.0019 61.4795C45.1268 61.2975 45.2525 61.0952 45.3494 60.8927C45.4385 60.7064 45.5402 60.4459 45.5402 60.1683H44.1402C44.1402 60.1285 44.1481 60.1596 44.0865 60.2884C44.0327 60.401 43.9506 60.5372 43.8478 60.687C43.6428 60.9855 43.3954 61.2799 43.2417 61.4554L44.2944 62.3782ZM45.5402 60.1683C45.5402 59.9555 45.4794 59.7394 45.3409 59.5528C45.2063 59.3714 45.0295 59.2595 44.8618 59.1936C44.5443 59.0687 44.1867 59.0776 43.8759 59.1297C43.2326 59.2375 42.4582 59.5867 41.7339 60.1496L42.593 61.255C43.1748 60.8029 43.7388 60.5722 44.1074 60.5104C44.3025 60.4777 44.3692 60.5043 44.3495 60.4965C44.3308 60.4891 44.2713 60.4607 44.2167 60.3872C44.1582 60.3084 44.1402 60.2246 44.1402 60.1683H45.5402ZM41.7276 60.1545C40.9307 60.7886 40.2011 61.6188 39.6146 62.372L40.7192 63.2321C41.2761 62.517 41.9272 61.7848 42.5992 61.2501L41.7276 60.1545ZM39.6095 62.3787C38.5774 63.7375 38.0266 64.9133 37.5883 65.8484L38.856 66.4426C39.2885 65.5198 39.7877 64.4587 40.7244 63.2254L39.6095 62.3787ZM37.587 65.8512C36.1721 68.9049 36.6426 67.7205 35.4862 70.6355L36.7876 71.1518C37.9255 68.2832 37.4327 69.5143 38.8573 66.4398L37.587 65.8512ZM35.4868 70.6341C34.9116 72.0747 34.6697 72.7164 34.5421 73.0592C34.4167 73.3959 34.416 73.4049 34.3167 73.6095L35.5761 74.2209C35.7077 73.9498 35.7287 73.8845 35.8541 73.5476C35.9772 73.2169 36.2151 72.5856 36.787 71.1532L35.4868 70.6341ZM34.3193 73.6041C34.1662 73.9127 33.9614 74.1353 33.7078 74.2665L34.3511 75.51C34.9229 75.2141 35.3177 74.7418 35.5735 74.2263L34.3193 73.6041ZM33.7169 74.2619C33.4821 74.3791 33.1658 74.3421 33.0348 74.2499L32.229 75.3948C32.8326 75.8196 33.7061 75.8319 34.342 75.5146L33.7169 74.2619ZM33.0098 74.2331C33.0634 74.2675 33.0699 74.3025 33.0596 74.2746C33.0473 74.2417 33.0287 74.1639 33.0287 74.0249H31.6287C31.6287 74.4772 31.7377 75.0805 32.254 75.4116L33.0098 74.2331ZM33.0287 74.0249C33.0287 73.8976 33.0475 73.7568 33.0844 73.5987L31.721 73.2806C31.667 73.512 31.6287 73.7628 31.6287 74.0249H33.0287ZM33.0799 73.6166C33.2311 73.0383 33.6426 72.1282 34.261 70.8626C34.8646 69.6274 35.6466 68.0885 36.4742 66.3345L35.2081 65.7371C34.3849 67.4817 33.62 68.9854 33.0032 70.2479C32.4012 71.4799 31.9188 72.5225 31.7254 73.2627L33.0799 73.6166ZM36.477 66.3284C36.5697 66.127 36.6334 65.9845 36.6753 65.8855C36.696 65.8365 36.7141 65.7919 36.7285 65.7529C36.7353 65.7344 36.7661 65.6539 36.7791 65.562C36.783 65.5349 36.79 65.4762 36.784 65.4024C36.7797 65.3495 36.7607 65.1604 36.6059 64.9883C36.4004 64.7599 36.1248 64.7336 35.9452 64.7698C35.803 64.7985 35.7075 64.8641 35.6773 64.8854C35.6059 64.9358 35.5593 64.9892 35.5495 65.0002C35.5312 65.0209 35.5167 65.0394 35.5083 65.0503C35.4918 65.0718 35.4759 65.0942 35.4699 65.1027C35.4588 65.1182 35.4605 65.1157 35.4647 65.1102L36.5724 65.9663C36.589 65.9449 36.6058 65.9211 36.6104 65.9146C36.6201 65.901 36.6204 65.9008 36.6182 65.9036C36.617 65.9052 36.6092 65.9153 36.5969 65.9292C36.5931 65.9335 36.5517 65.9818 36.4846 66.0292C36.4564 66.0491 36.3627 66.1138 36.2221 66.1421C36.044 66.1781 35.7696 66.152 35.5651 65.9246C35.4111 65.7535 35.3927 65.5661 35.3886 65.5157C35.3828 65.4444 35.3897 65.3889 35.3929 65.3658C35.4036 65.2903 35.4256 65.2396 35.4148 65.269C35.4115 65.2779 35.4031 65.2995 35.3861 65.3395C35.3527 65.4185 35.2962 65.5456 35.2053 65.7431L36.477 66.3284ZM35.5467 65.0213C34.1766 66.272 33.1617 66.8536 32.4434 67.1635L32.9979 68.449C33.8773 68.0697 35.0211 67.3967 36.4905 66.0553L35.5467 65.0213ZM32.448 67.1615C31.8607 67.4099 31.2577 67.5068 30.8129 67.4274C30.5989 67.3893 30.4443 67.3149 30.336 67.2206C30.2327 67.1306 30.1365 66.9924 30.0819 66.7604L28.7192 67.0816C28.8349 67.5726 29.0728 67.9768 29.4163 68.2761C29.7549 68.5711 30.1598 68.733 30.5671 68.8057C31.365 68.948 32.2517 68.7645 32.9933 68.451L32.448 67.1615ZM30.0774 66.7425C30.0802 66.7534 30.0796 66.7568 30.0732 66.7044C30.0687 66.6682 30.0586 66.5761 30.033 66.4792L28.6793 66.8361C28.6764 66.8253 28.6771 66.8218 28.6835 66.8742C28.6879 66.9104 28.6981 67.0025 28.7237 67.0995L30.0774 66.7425ZM28.9418 66.0934C28.2977 66.5665 27.6609 66.9406 27.093 67.1766C26.5091 67.4192 26.0726 67.4847 25.7955 67.4397C25.6689 67.4191 25.5891 67.378 25.534 67.331C25.479 67.2842 25.4137 67.202 25.3618 67.045C25.25 66.7066 25.2245 66.0896 25.461 65.0668L24.097 64.7514C23.8393 65.8656 23.8011 66.7838 24.0325 67.4842C24.1522 67.8465 24.3475 68.1595 24.6265 68.397C24.9052 68.6344 25.2327 68.7666 25.5711 68.8215C26.2239 68.9276 26.9481 68.7529 27.6302 68.4694C28.3284 68.1793 29.0631 67.7414 29.7705 67.2218L28.9418 66.0934ZM24.1771 64.5516C23.2088 66.1818 21.5692 67.4282 19.6398 67.4282V68.8282C22.2081 68.8282 24.2442 67.18 25.3808 65.2666L24.1771 64.5516ZM19.6398 67.4282C19.2379 67.4282 18.9552 67.363 18.758 67.2592C18.5765 67.1637 18.4274 67.0153 18.3166 66.7558L17.0291 67.3057C17.259 67.8441 17.6239 68.2444 18.106 68.4981C18.5723 68.7435 19.1027 68.8282 19.6398 68.8282V67.4282ZM18.3128 66.7471C18.1534 66.3875 18.1664 65.7886 18.3953 64.9112C18.6166 64.0632 18.9923 63.1179 19.3746 62.1431L18.0712 61.632C17.7 62.5787 17.2876 63.6114 17.0407 64.5577C16.8014 65.4747 16.666 66.4866 17.0329 67.3144L18.3128 66.7471ZM19.3724 62.1486C19.7527 61.2023 20.2751 60.0564 20.9772 58.7151L19.7369 58.0658C19.0155 59.444 18.4729 60.6324 18.0734 61.6265L19.3724 62.1486ZM20.9831 58.7036C21.1277 58.4145 21.2887 58.242 21.4331 58.1547C21.5599 58.0781 21.7105 58.0429 21.9251 58.0965L22.2644 56.7383C21.6991 56.5971 21.1645 56.6814 20.7092 56.9564C20.2716 57.2208 19.9536 57.6322 19.731 58.0773L20.9831 58.7036ZM21.8755 58.0822C21.9992 58.123 22.0681 58.1513 22.1222 58.1816L22.8068 56.9605C22.6337 56.8634 22.4629 56.8017 22.314 56.7526L21.8755 58.0822ZM22.0808 58.1565C22.1438 58.1978 22.1457 58.2171 22.1384 58.202C22.131 58.187 22.1375 58.1851 22.1348 58.2203C22.1317 58.262 22.117 58.3317 22.0762 58.4388C22.0359 58.5448 21.9795 58.6633 21.9079 58.8031L23.1542 59.441C23.2988 59.1585 23.4984 58.7512 23.5308 58.3267C23.5484 58.0959 23.5193 57.8401 23.3971 57.5891C23.2748 57.338 23.0824 57.1391 22.8482 56.9856L22.0808 58.1565ZM21.9146 58.7904C21.0692 60.3615 20.2608 61.6394 19.7307 63.4138L21.0721 63.8145C21.5492 62.2176 22.2513 61.1191 23.1475 59.4538L21.9146 58.7904ZM19.7286 63.4209C19.6247 63.7827 19.4808 64.3587 19.4941 64.8721C19.5006 65.1249 19.5461 65.4589 19.7406 65.7474C19.9677 66.0845 20.3296 66.2602 20.7416 66.2602V64.8602C20.7319 64.8602 20.76 64.8588 20.8045 64.8814C20.8511 64.905 20.8838 64.9387 20.9015 64.965C20.925 64.9998 20.8973 64.9808 20.8936 64.836C20.8863 64.5543 20.9737 64.1573 21.0742 63.8074L19.7286 63.4209ZM20.7416 66.2602C21.4495 66.2602 22.1104 66.0321 22.7173 65.6198L21.9307 64.4617C21.5229 64.7387 21.1316 64.8602 20.7416 64.8602V66.2602ZM22.7245 65.6149C23.8917 64.8007 24.8004 63.608 25.4688 62.4876L24.2666 61.7703C23.6478 62.8075 22.8613 63.8125 21.9235 64.4667L22.7245 65.6149ZM25.4704 62.485C25.9307 61.7059 26.5189 60.6326 26.8211 59.6862L25.4875 59.2602C25.237 60.0445 24.7209 61.0013 24.265 61.7729L25.4704 62.485ZM26.8231 59.6801C26.9248 59.3513 27.0524 59.0389 27.1975 58.7413L25.9393 58.1274C25.7665 58.4816 25.611 58.861 25.4856 59.2663L26.8231 59.6801ZM27.2019 58.7322C27.3232 58.4742 27.4342 58.2822 27.5487 58.1583C27.649 58.0498 27.7091 58.0369 27.7589 58.0369V56.6369C27.2106 56.6369 26.8023 56.9031 26.5203 57.2084C26.2525 57.4983 26.0673 57.855 25.935 58.1365L27.2019 58.7322ZM27.7589 58.0369C27.8697 58.0369 27.9192 58.068 27.9626 58.1179L29.0194 57.1997C28.6918 56.8227 28.2464 56.6369 27.7589 56.6369V58.0369ZM27.9496 58.1026C28.0428 58.2163 28.0629 58.302 28.0634 58.3883C28.064 58.5002 28.0296 58.6529 27.9372 58.8841L29.2371 59.4039C29.3528 59.1145 29.4654 58.7624 29.4634 58.3808C29.4612 57.9736 29.3291 57.5771 29.0324 57.2151L27.9496 58.1026ZM27.9325 58.8961C27.7145 59.4719 27.4573 60.0209 27.1806 60.6108C26.9069 61.1944 26.6155 61.8151 26.3516 62.4988L27.6578 63.0028C27.9013 62.3718 28.172 61.794 28.4481 61.2054C28.7213 60.623 29.0017 60.026 29.2418 59.3919L27.9325 58.8961ZM26.3537 62.4935C26.0538 63.2523 25.6836 64.3315 25.6836 65.2749H27.0836C27.0836 64.6226 27.3574 63.7627 27.6557 63.0082L26.3537 62.4935ZM25.6836 65.2749C25.6836 65.5963 25.781 65.9358 26.0573 66.1861C26.3172 66.4215 26.6331 66.4835 26.8731 66.4916C27.3355 66.5072 27.8445 66.3342 28.2183 66.1749L27.6693 64.887C27.5133 64.9535 27.3594 65.0087 27.2205 65.0455C27.0766 65.0836 26.977 65.0943 26.9204 65.0924C26.8594 65.0904 26.9186 65.0773 26.9972 65.1485C27.0922 65.2345 27.0836 65.3206 27.0836 65.2749H25.6836ZM28.2203 66.174C28.8445 65.9057 29.4477 65.5042 29.9396 65.1132L29.0685 64.0172C28.6366 64.3605 28.141 64.6842 27.6674 64.8879L28.2203 66.174ZM30.1812 64.7424C30.4409 63.75 30.3316 64.0634 36.198 50.1092L34.9074 49.5667C29.0827 63.4216 29.1199 63.2678 28.8268 64.388L30.1812 64.7424ZM36.1981 50.1091C36.3924 49.6468 36.6943 49.521 36.9503 49.521V48.121C36.1083 48.121 35.3113 48.6057 34.9074 49.5667L36.1981 50.1091ZM36.9503 49.521C37.0492 49.521 37.1423 49.5464 37.3014 49.6497L38.0633 48.4752C37.7606 48.2787 37.4042 48.121 36.9503 48.121V49.521ZM37.2732 49.6304C37.2741 49.631 37.2747 49.6316 37.2757 49.6328C37.2769 49.6342 37.2799 49.6381 37.284 49.646C37.2927 49.6628 37.3051 49.6961 37.312 49.7508C37.3265 49.8663 37.3087 50.0191 37.2585 50.1622L38.5795 50.6257C38.6883 50.3155 38.7471 49.9431 38.7011 49.5763C38.6546 49.2068 38.4902 48.7817 38.0915 48.4945L37.2732 49.6304ZM37.2659 50.1419C37.1974 50.3195 37.1733 50.3671 37.0447 50.6371C36.9152 50.9092 36.6941 51.3777 36.2454 52.3747L37.5221 52.9492C37.9669 51.9609 38.1839 51.5014 38.3088 51.2388C38.4348 50.9742 38.4815 50.8805 38.572 50.646L37.2659 50.1419ZM36.247 52.3711C35.053 54.9851 34.2666 56.8934 33.2188 59.2715L34.5 59.836C35.5647 57.4194 36.3293 55.5605 37.5205 52.9528L36.247 52.3711ZM33.2184 59.2725C32.7931 60.2422 31.4437 63.3781 31.2016 64.1608L32.539 64.5746C32.7511 63.8889 34.055 60.8505 34.5004 59.8349L33.2184 59.2725ZM31.1974 64.1749C31.1288 64.4143 31.0235 64.8207 31.0354 65.194C31.0413 65.3785 31.0773 65.6524 31.2505 65.8959C31.4551 66.1836 31.7702 66.3187 32.0995 66.3187V64.9187C32.119 64.9187 32.1708 64.9226 32.2356 64.9538C32.3031 64.9863 32.356 65.0347 32.3914 65.0845C32.4505 65.1676 32.4369 65.218 32.4347 65.1493C32.4329 65.0937 32.4404 65.0077 32.462 64.8935C32.4827 64.7833 32.5123 64.6684 32.5432 64.5605L31.1974 64.1749ZM32.0995 66.3187C32.3753 66.3187 32.6514 66.2429 32.8961 66.1496C33.1484 66.0534 33.4119 65.9212 33.6744 65.7709C34.1993 65.4704 34.7686 65.0694 35.3104 64.654C36.3954 63.822 37.4298 62.8856 37.8808 62.4491L36.9071 61.4431C36.4874 61.8494 35.4936 62.7493 34.4585 63.543C33.9403 63.9403 33.4267 64.2995 32.9788 64.5559C32.7549 64.6841 32.5597 64.7796 32.3974 64.8414C32.2275 64.9062 32.1333 64.9187 32.0995 64.9187V66.3187ZM37.9638 62.3526C37.9357 62.392 37.9047 62.4232 37.8761 62.4467C37.849 62.4688 37.8276 62.4811 37.8211 62.4847C37.8162 62.4875 37.8165 62.4869 37.835 62.4782C37.848 62.4721 37.8807 62.457 37.9114 62.4418L37.2906 61.187C37.2759 61.1942 37.2657 61.1989 37.2384 61.2117C37.2167 61.2219 37.1795 61.2396 37.1398 61.2617C37.0546 61.3091 36.9291 61.3924 36.8241 61.5395L37.9638 62.3526ZM38.2656 62.0342C38.3966 61.6382 38.5393 61.2307 38.6576 60.8251L37.3135 60.4332C37.2046 60.8068 37.078 61.1664 36.9364 61.5945L38.2656 62.0342ZM38.6372 60.8848C38.9908 59.9834 39.2372 59.1986 39.7267 58.6531L38.6846 57.7181C37.9777 58.5061 37.6239 59.6342 37.3339 60.3735L38.6372 60.8848ZM39.7426 58.6347C39.7952 58.5718 39.8309 58.5468 39.8443 58.5391C39.85 58.5358 39.8497 58.5368 39.8436 58.5385C39.8371 58.5403 39.8285 58.5417 39.8194 58.5417V57.1417C39.3058 57.1417 38.9226 57.4329 38.6687 57.7365L39.7426 58.6347ZM39.8194 58.5417C39.9354 58.5417 40.0089 58.5537 40.0513 58.5655C40.091 58.5766 40.0924 58.5843 40.0796 58.5732C40.0643 58.5598 40.0604 58.5475 40.0633 58.5553C40.0681 58.5684 40.0807 58.6126 40.0807 58.705H41.4807C41.4807 58.2825 41.3659 57.8377 41.0003 57.5185C40.655 57.217 40.2123 57.1417 39.8194 57.1417V58.5417ZM40.0807 58.705C40.0807 58.702 40.0805 58.716 40.0769 58.754C40.0736 58.7887 40.0684 58.833 40.0611 58.8857C40.0467 58.9909 40.0261 59.1178 40.0021 59.2471C39.9782 59.3765 39.952 59.5026 39.9273 59.6069C39.915 59.659 39.9037 59.7024 39.8941 59.7361C39.8836 59.7729 39.8784 59.7861 39.8795 59.7833L41.1789 60.3045C41.2565 60.1111 41.3298 59.7662 41.3788 59.5018C41.4281 59.2352 41.4807 58.8974 41.4807 58.705H40.0807ZM41.0245 60.5386C41.3371 60.2256 41.6647 59.9149 42.0187 59.6044L41.0955 58.5519C40.715 58.8857 40.365 59.2178 40.034 59.5492L41.0245 60.5386ZM42.0174 59.6055C43.6401 58.1892 44.9013 57.9521 45.6592 58.0953C46.4307 58.2411 46.7431 58.7597 46.7431 59.1221H48.1431C48.1431 57.9711 47.2313 56.9676 45.9192 56.7196C44.5936 56.4691 42.9118 56.9667 41.0968 58.5508L42.0174 59.6055ZM46.7431 59.1221C46.7431 59.3805 46.658 59.7137 46.4717 60.1174C46.2881 60.5155 46.0249 60.9418 45.7151 61.3754C45.0938 62.2447 44.3331 63.0776 43.7678 63.6992L44.8035 64.6411C45.3589 64.0304 46.1768 63.1371 46.8541 62.1894C47.1936 61.7144 47.5097 61.2095 47.7429 60.704C47.9735 60.2042 48.1431 59.6615 48.1431 59.1221H46.7431ZM43.7631 63.7044C43.6776 63.8003 43.5679 63.9178 43.4425 64.0525C43.3201 64.184 43.1854 64.3289 43.0606 64.469C42.9378 64.607 42.8131 64.753 42.7143 64.8861C42.6653 64.9522 42.6131 65.0279 42.5691 65.1067C42.5352 65.1674 42.4615 65.3058 42.4433 65.4801L43.8357 65.6257C43.8232 65.7457 43.7781 65.813 43.7913 65.7893C43.7945 65.7837 43.8079 65.7617 43.8388 65.7201C43.8996 65.6381 43.9912 65.5292 44.1061 65.4001C44.2191 65.2732 44.3438 65.139 44.4671 65.0065C44.5875 64.8772 44.7101 64.746 44.8082 64.6359L43.7631 63.7044ZM42.4395 65.5529C42.4395 65.885 42.5731 66.2101 42.8695 66.4237C43.1268 66.6091 43.4223 66.648 43.6423 66.648V65.248C43.6101 65.248 43.5995 65.2447 43.6052 65.2461C43.6113 65.2476 43.6447 65.2567 43.688 65.2879C43.7351 65.3218 43.7794 65.3718 43.8087 65.4336C43.8366 65.4926 43.8395 65.5383 43.8395 65.5529H42.4395ZM43.6423 66.648C43.9147 66.648 44.1784 66.5456 44.361 66.4623C44.5648 66.3693 44.7741 66.2488 44.9642 66.1301C45.3411 65.8947 45.7133 65.6201 45.879 65.5035L45.0733 64.3586C44.8718 64.5004 44.5561 64.7344 44.2225 64.9427C44.0572 65.046 43.9056 65.1313 43.7799 65.1886C43.6331 65.2556 43.599 65.248 43.6423 65.248V66.648ZM45.8906 65.4952C47.0576 64.6377 48.6297 63.3265 49.7217 62.4281L48.8322 61.347C47.7207 62.2615 46.189 63.5387 45.0617 64.3669L45.8906 65.4952ZM49.9724 61.9675L53.3664 32.4324L51.9756 32.2726L48.5815 61.8076L49.9724 61.9675ZM6.71153 87.4541L10.1278 92.9412L11.3163 92.2013L7.90001 86.7142L6.71153 87.4541ZM10.0241 92.6254L11.3551 109.767L12.7509 109.659L11.4199 92.517L10.0241 92.6254ZM11.353 109.713C11.353 110.607 12.0858 111.244 12.8449 111.675C13.6592 112.138 14.7907 112.531 16.1277 112.852C18.8127 113.496 22.4843 113.888 26.5093 113.888V112.488C22.561 112.488 19.0044 112.103 16.4546 111.49C15.1742 111.183 14.1867 110.827 13.5362 110.458C12.8307 110.057 12.753 109.779 12.753 109.713H11.353ZM26.5093 113.888C30.5343 113.888 34.2058 113.496 36.8908 112.852C38.2278 112.531 39.3594 112.138 40.1736 111.675C40.9328 111.244 41.6655 110.607 41.6655 109.713H40.2655C40.2655 109.779 40.1879 110.057 39.4823 110.458C38.8318 110.827 37.8443 111.183 36.5639 111.49C34.0141 112.103 30.4575 112.488 26.5093 112.488V113.888ZM41.6642 109.756L42.7216 92.4383L41.3242 92.353L40.2668 109.67L41.6642 109.756ZM42.6213 92.7589L45.8453 87.4474L44.6485 86.7209L41.4245 92.0324L42.6213 92.7589ZM44.9884 86.4337C40.5705 88.1897 33.5479 89.1215 26.4125 89.1374C19.2777 89.1532 12.164 88.2529 7.56323 86.4332L7.04831 87.7351C11.8898 89.65 19.2091 90.5533 26.4156 90.5374C33.6215 90.5214 40.8484 89.5858 45.5055 87.7347L44.9884 86.4337Z" fill="black" mask="url(#path-1-inside-1_20_25)"/>
<path d="M73.5004 92.8459V52.9586L107.075 33.0236L140.65 52.9586V92.8459L107.075 112.781L73.5004 92.8459Z" stroke="black" stroke-width="0.7"/>
<path d="M89.4026 63.9805L105.665 73.7815V91.3969L89.4026 82.576V63.9805Z" stroke="black" stroke-width="0.7"/>
<path d="M124.748 63.9805V82.576L108.485 91.3969V73.7815L124.748 63.9805Z" stroke="black" stroke-width="0.7"/>
<path d="M107.605 71.4385L90.8439 61.8148L107.605 53.1534L124.367 61.8148L107.605 71.4385Z" stroke="black" stroke-width="0.7"/>
<path d="M87.8373 60.3436L78.3943 54.6779L105.712 39.0676V50.413L87.8373 60.3436Z" stroke="black" stroke-width="0.7"/>
<path d="M87.8373 85.4608L105.712 95.3914V106.737L78.3943 91.1266L87.8373 85.4608Z" stroke="black" stroke-width="0.7"/>
<path d="M77.0388 88.4901V57.3144L86.4676 62.9717V82.8328L77.0388 88.4901Z" stroke="black" stroke-width="0.7"/>
<path d="M126.313 60.3436L108.438 50.413V39.0676L135.756 54.6779L126.313 60.3436Z" stroke="black" stroke-width="0.7"/>
<path d="M126.313 85.4608L135.756 91.1266L108.438 106.737V95.3914L126.313 85.4608Z" stroke="black" stroke-width="0.7"/>
<path d="M127.683 82.8328V62.9717L137.112 57.3144V88.4901L127.683 82.8328Z" stroke="black" stroke-width="0.7"/>
<path d="M6.45001 85L8.27001 88" stroke="black" stroke-width="0.7"/>
<path d="M32.02 30.5L32.5 28.75L32.95 27" stroke="black" stroke-width="0.7"/>
<path d="M36.3 30.5L36.78 28.75L37.23 27" stroke="black" stroke-width="0.7"/>
<path d="M4.77 69L2.97095 52.0035" stroke="black" stroke-width="0.7"/>
<path d="M48.1287 68.3998L49.03 60.9914" stroke="black" stroke-width="0.7"/>
<path d="M44.3 88L46.0001 85" stroke="black" stroke-width="0.7"/>
</svg>
