<svg width="178" height="178" viewBox="0 0 178 178" fill="none" xmlns="http://www.w3.org/2000/svg">
<path d="M1 19.7778C1 9.40779 9.40779 1 19.7778 1H158.222C168.592 1 177 9.40778 177 19.7778V158.222C177 168.592 168.592 177 158.222 177H19.7778C9.40778 177 1 168.592 1 158.222V19.7778Z" stroke="black" stroke-width="2"/>
<path d="M86.5153 123.626L86.7109 124.372H87.4827H102.543H103.906L103.497 123.072L81.5327 53.2522L81.3125 52.5522H80.5788H67.6793H66.9441L66.7248 53.254L44.9082 123.074L44.5025 124.372H45.8626H60.7754H61.5475L61.7428 123.625L65.2843 110.083H82.9692L86.5153 123.626ZM122.636 124.372H123.636V123.372V71.4897V70.4897H122.636H109.02H108.02V71.4897V123.372V124.372H109.02H122.636ZM121.891 63.9358L121.892 63.9345C123.415 62.3558 124.161 60.3708 124.161 58.0599C124.161 55.7174 123.411 53.7225 121.854 52.1711C120.289 50.6115 118.225 49.8663 115.776 49.8663C113.33 49.8663 111.259 50.605 109.696 52.1737C108.148 53.7273 107.391 55.7146 107.391 58.0599C107.391 60.3691 108.132 62.3555 109.661 63.9358C111.214 65.5408 113.285 66.3027 115.776 66.3027C118.267 66.3027 120.338 65.5408 121.891 63.9358ZM16.3448 161.655V16.3448H161.655V161.655H16.3448Z" stroke="black" stroke-width="2"/>
<path d="M68.798 97.2069L73.6551 77.7783L78.5123 97.2069H68.798Z" stroke="black" stroke-width="2"/>
</svg>
