<svg width="211" height="299" viewBox="0 0 211 299" fill="none" xmlns="http://www.w3.org/2000/svg">
<path d="M42 128.5L38.5 103.5H170.5L168.5 128.5L108 156H166L159 235L104.5 252L52 235L47 195H76V216L104.5 223.5L133.5 214.5L137 180H45.5L42 156L108 128.5H42Z" stroke="black" stroke-width="2.5"/>
<path d="M42 40.5V2H74.5V14.5H56.5V28H74.5V40.5H42Z" stroke="black" stroke-width="2.5"/>
<path d="M90 14.5V2H121.5V14.5H108.5L121.5 28V41L88.5 40.5V28H101.5L90 14.5Z" stroke="black" stroke-width="2.5"/>
<path d="M135.5 14.5V2H167V14.5H154L167 28V41L134 40.5V28H147L135.5 14.5Z" stroke="black" stroke-width="2.5"/>
<path d="M209 60.5H2L21 272.5L105.5 297L191 272L209 60.5Z" stroke="black" stroke-width="2.5"/>
</svg>
