<?xml version="1.0" encoding="UTF-8"?>
<svg id="_レイヤー_2" data-name="レイヤー 2" xmlns="http://www.w3.org/2000/svg" viewBox="0 0 689 364">
  <defs>
    <style>
      .cls-1 {
        stroke-width: 4px;
      }

      .cls-1, .cls-2 {
        fill: none;
        stroke: #000;
      }

      .cls-2 {
        stroke-width: 5px;
      }
    </style>
  </defs>
  <g id="_レイヤー_1-2" data-name="レイヤー 1">
    <g>
      <path class="cls-1" d="m687,182c0,49.15-37.74,94.12-99.84,126.92-62,32.76-147.79,53.08-242.66,53.08s-180.66-20.32-242.66-53.08C39.74,276.12,2,231.15,2,182S39.74,87.88,101.84,55.07C163.84,22.32,249.63,2,344.5,2s180.66,20.32,242.66,53.07c62.09,32.8,99.84,77.78,99.84,126.93Z"/>
      <path class="cls-2" d="m482.57,140.82h-2.04l-.4,2.01-15.3,76.76-.5,2.53,2.58.43c1.13.19,2.28.28,3.43.28h3.55c16.47.17,30.36-1.46,41.57-4.98h.02s.02-.01.02-.01c12.32-4.05,19.85-17.86,23.61-39.29h0c1.56-9.12,1.62-16.62-.07-22.31-1.73-5.85-5.35-9.83-10.85-11.46-9.34-2.82-20.91-4.11-34.65-3.94h-10.95Zm-311.63,77h-3.67l14.35-72h8.95c13.45-.17,24.47,1.1,33.15,3.73h.01c3.67,1.09,6.17,3.64,7.5,8.11,1.37,4.62,1.44,11.23-.07,20.03-3.72,21.19-10.8,32.28-20.23,35.39-10.54,3.3-23.85,4.91-40,4.74Zm97.35-39.58v.03s0,.03,0,.03c-1.15,8.78-3.72,17.42-7.7,25.9v.02s-.02.02-.02.02c-3.79,8.43-9.06,16.03-15.83,22.83l-.02.02-.02.02c-8.26,8.62-16.97,13.96-26.12,16.21-9.5,2.34-19.34,3.51-29.53,3.51h-32.8l-.4,2.02-9.37,46.98h-30.43l35.59-179h66.52c19.62.17,33.32,5.83,41.71,16.47,8.45,10.72,11.43,25.56,8.43,44.95Z"/>
      <path class="cls-2" d="m307.18,247.82h-30.13l35.83-179h30.2l-9.38,46-.61,3h34.76c17.13.34,29.43,3.88,37.33,10.21h0s0,.01,0,.01c7.52,5.91,10.3,17.58,6.76,36.5,0,0,0,.01,0,.02l-16.72,83.26h-30.76l15.91-79.2h0c1.74-8.74,1.44-15.83-2.01-20.38-1.79-2.36-4.49-3.95-7.79-4.96-3.29-1-7.32-1.47-12.02-1.47,0,0,.09,0,.09,0h-28.37l-2-.02-.41,2.04-20.71,103.98Z"/>
      <path class="cls-2" d="m571.28,178.24v.03s0,.03,0,.03c-1.16,8.78-3.74,17.41-7.75,25.9v.02s-.02.02-.02.02c-3.81,8.42-9.11,16.03-15.93,22.83l-.02.02-.02.02c-8.31,8.62-17.08,13.96-26.29,16.21-9.56,2.34-19.47,3.51-29.72,3.51h-33l-.41,2.02-9.43,46.98h-30.65l35.81-179h66.95c19.76.17,33.54,5.83,41.99,16.47,8.5,10.71,11.5,25.55,8.48,44.94Z"/>
    </g>
  </g>
</svg>