<?xml version="1.0" encoding="UTF-8"?>
<svg id="_レイヤー_2" data-name="レイヤー 2" xmlns="http://www.w3.org/2000/svg" viewBox="0 0 98.79 98.82">
  <defs>
    <style>
      .cls-1 {
        fill: none;
        stroke: #000;
        stroke-width: 1.2px;
      }
    </style>
  </defs>
  <g id="_レイヤー_1-2" data-name="レイヤー 1">
    <path class="cls-1" d="m65.29,45.44c-.67,1.2-1.05,2.56-1.05,4.03,0,4.59,4.01,8.46,8.6,8.3s8.01-3.79,8.01-8.3-3.7-8.31-8.31-8.31l-2.97.04c-.23,0-.45.06-.68.1s-.46.04-.69,0c-.34-.07-.66-.24-.9-.49m0,0l-9.28-9.28m0,0c-.25-.25-.42-.56-.49-.9-.07-.34-.04-.7.09-1.02m0,0c.42-1.05.66-2.14.66-3.3,0-4.94-3.97-8.91-8.91-8.91-1.31,0-2.54.29-3.66.79m0,0c-.21.1-.45.17-.69.18-.24.01-.48-.02-.7-.1-.22-.08-.43-.21-.61-.37-.18-.16-.32-.36-.41-.58-.1-.22-.15-.45-.16-.69,0-.24.04-.48.12-.7.09-.22.22-.42.39-.59.17-.17.37-.3.59-.4m0,0c1.56-.7,3.3-1.11,5.12-1.11,6.87,0,12.47,5.6,12.47,12.47,0,1.11-.3,2.11-.59,3.1-.02.08-.05.17-.07.25m.65-.09s.02-.06.02-.08m-.25-.25l.25.25m-18.09,31.48c-.11.06-.23.11-.34.17m.08.48v-.5m0,0v-23h0c.01-.88-.45-1.71-1.2-2.16-3.42-2.06-5.4-5.23-5.4-9.65,0-1.3.12-2.47.5-3.63l-.9-1.05-5.82-6.14-.42.43m13.16,45.23c-4.52,2.34-7.59,7.12-7.07,12.7.56,6.05,5.38,11.03,11.41,11.75,7.91.95,14.67-5.25,14.67-12.97,0-5.05-2.75-9.31-6.93-11.48v-21.52l1,1.14,3.37,3.53c.42.44.59,1.07.45,1.67l-.35,1.44c-.52,2.14-.48,4.41.27,6.49,1.87,5.19,6.95,8.87,12.81,8.64,6.72-.26,12.27-5.82,12.54-12.53.3-7.43-5.69-13.6-13.06-13.6-1.16,0-2.22.3-3.19.58l-1-1-6.48-6.48m3.42,15.94s0,0,0,0M30.28,15.92l-16.76,16.71-2.95,2.79c-7.79,7.79-7.78,20.37,0,28.16l24.72,24.72c7.79,7.79,20.37,7.79,28.16,0l24.31-25.22c7.56-7.56,7.56-19.76,0-27.31h0l-24.73-24.74h0c-6.75-6.75-17.21-7.46-24.75-2.16-.25.18-.54.31-.85.39-.31.07-.62.08-.93.03s-.61-.17-.87-.33c-.27-.17-.5-.39-.68-.64-.18-.26-.31-.55-.38-.86s-.08-.63-.02-.94c.06-.31.17-.61.34-.87.17-.26.39-.49.65-.67,4.11-2.89,8.93-4.34,13.75-4.36.69,0,1.38.03,2.06.08,5.49.45,10.86,2.77,15.05,6.96h0s24.73,24.74,24.73,24.74h0c9.39,9.39,9.39,24.66,0,34.05l-24.74,24.74c-9.4,9.4-24.65,9.4-34.05,0l-24.54-24.54h0l-.18-.18c-9.38-9.39-9.39-24.65,0-34.04L28.55,10.8h0c.22-.23.48-.41.77-.53s.6-.19.92-.19c.32,0,.63.06.92.18.29.12.56.3.78.52t0,0l9.04,8.85.68.61c.34.34.57.78.66,1.26.09.48.03.97-.17,1.41h0c-.47,1.05-.74,2.2-.74,3.41,0,3.63,2.31,6.68,5.54,7.82h0c.46.16.86.47,1.15.87.28.4.44.88.44,1.37h0v26.18c0,.49-.22.97-.5,1.38-.28.4-.98.71-1.45.87h0c-3.22,1.14-5.54,4.19-5.54,7.82,0,4.91,4.2,8.79,9.22,8.26,3.8-.4,6.9-3.49,7.33-7.28.46-4.05-1.97-7.55-5.48-8.8-.46-.16-.87-.47-1.15-.87-.28-.4-.44-.88-.44-1.38v-26.18h0c0-.49.15-.97.44-1.37.28-.4.69-.7,1.15-.87.42-.15.84-.34,1.26-.58.45-.25.97-.35,1.48-.28.51.07.99.31,1.35.67h0s8.64,8.64,8.64,8.64h0c.37.37.6.84.68,1.36.07.51-.03,1.04-.28,1.49"/>
  </g>
</svg>