<svg width="211" height="299" viewBox="0 0 211 299" fill="none" xmlns="http://www.w3.org/2000/svg">
<path d="M46.5 182L53.5 103H158.5L165.5 144.5H139L137.5 129.5H75.5L73.5 156.5H165.5L158.5 236.5L104.5 251.5L50.5 236.5L46.5 196H73.5L75.5 216L104.5 223.5L133 216L135.5 182H46.5Z" stroke="black" stroke-width="2.2"/>
<path d="M66 41V28H84V2H97.5V41H66Z" stroke="black" stroke-width="2.2"/>
<path d="M111.5 15V2H143.5V15H131L143.5 28V41H111.5V28H124L111.5 15Z" stroke="black" stroke-width="2.2"/>
<path d="M209 60.5H2L21 272.5L105.5 297L191 272L209 60.5Z" stroke="black" stroke-width="2.2"/>
</svg>
