<svg width="201" height="76" viewBox="0 0 201 76" fill="none" xmlns="http://www.w3.org/2000/svg">
<path d="M75 72H64V38.25C64 24.0287 52.4713 12.5 38.25 12.5H37.5C23.6929 12.5 12.5 23.6929 12.5 37.5V38.6892C12.5 51.8395 23.1605 62.5 36.3108 62.5H41.636C45.7108 62.5 49.6187 60.8813 52.5 58V72C46.8887 73.8704 41.7257 74.7228 36.6674 75.0396C17.2804 76.2538 1 58.2345 1 38.8095V35.5C1 16.7223 16.2223 1.5 35 1.5H41C59.7777 1.5 75 16.7223 75 35.5V72Z" stroke="black" stroke-width="1.5"/>
<mask id="path-2-inside-1_17_151" fill="white">
<path fill-rule="evenodd" clip-rule="evenodd" d="M200.5 15V4H116.5C98.2746 4 83.5 18.7746 83.5 37V72H95V44.5H136V33.5H95C95 23.2827 103.283 15 113.5 15H156.5C151.396 19.7851 148.5 26.4695 148.5 33.4659V41V72H161V45.5V36.851C161 25.5781 169.534 16.1357 180.75 15H200.5Z"/>
</mask>
<path d="M200.5 4H202V2.5H200.5V4ZM200.5 15V16.5H202V15H200.5ZM83.5 72H82V73.5H83.5V72ZM95 72V73.5H96.5V72H95ZM95 44.5V43H93.5V44.5H95ZM136 44.5V46H137.5V44.5H136ZM136 33.5H137.5V32H136V33.5ZM95 33.5H93.5V35H95V33.5ZM156.5 15L157.526 16.0943L160.293 13.5H156.5V15ZM148.5 72H147V73.5H148.5V72ZM161 72V73.5H162.5V72H161ZM180.75 15V13.5H180.674L180.599 13.5076L180.75 15ZM199 4V15H202V4H199ZM116.5 5.5H200.5V2.5H116.5V5.5ZM85 37C85 19.603 99.103 5.5 116.5 5.5V2.5C97.4462 2.5 82 17.9462 82 37H85ZM85 72V37H82V72H85ZM95 70.5H83.5V73.5H95V70.5ZM93.5 44.5V72H96.5V44.5H93.5ZM136 43H95V46H136V43ZM134.5 33.5V44.5H137.5V33.5H134.5ZM95 35H136V32H95V35ZM113.5 13.5C102.454 13.5 93.5 22.4543 93.5 33.5H96.5C96.5 24.1112 104.111 16.5 113.5 16.5V13.5ZM156.5 13.5H113.5V16.5H156.5V13.5ZM150 33.4659C150 26.8841 152.724 20.5959 157.526 16.0943L155.474 13.9057C150.067 18.9744 147 26.0549 147 33.4659H150ZM150 41V33.4659H147V41H150ZM150 72V41H147V72H150ZM161 70.5H148.5V73.5H161V70.5ZM159.5 45.5V72H162.5V45.5H159.5ZM159.5 36.851V45.5H162.5V36.851H159.5ZM180.599 13.5076C168.617 14.7209 159.5 24.8082 159.5 36.851H162.5C162.5 26.3481 170.452 17.5505 180.901 16.4924L180.599 13.5076ZM200.5 13.5H180.75V16.5H200.5V13.5Z" fill="black" mask="url(#path-2-inside-1_17_151)"/>
</svg>
