<svg width="192" height="192" viewBox="0 0 192 192" fill="none" xmlns="http://www.w3.org/2000/svg">
<path d="M1.75 21.9167C1.75 10.7797 10.7797 1.75 21.9167 1.75H170.083C181.22 1.75 190.25 10.7797 190.25 21.9167V170.083C190.25 181.22 181.22 190.25 170.083 190.25H21.9167C10.7797 190.25 1.75 181.22 1.75 170.083V21.9167Z" stroke="black" stroke-width="2"/>
<path d="M65.3241 92.9257V71.4624H74.911C77.3104 71.4968 79.1898 72.4696 80.6238 74.4379C82.0802 76.4369 82.8609 79.192 82.8609 82.8132C82.8609 86.3054 82.0981 88.7955 80.7185 90.4417C79.3542 92.0698 77.4192 92.9257 74.7646 92.9257H65.3241Z" stroke="black" stroke-width="2"/>
<path d="M64.3241 133.042H65.3241V132.042V106.583H74.4523C82.3917 106.583 88.7339 104.395 93.3386 99.8904C97.9457 95.3891 100.207 89.2891 100.207 81.7073C100.207 74.1202 97.917 67.863 93.2876 63.0342C88.6442 58.1909 82.4289 55.7995 74.7645 55.7995H49.1317H48.1317V56.7995V132.042V133.042H49.1317H64.3241ZM106.282 113.727H105.282V114.727C105.282 118.225 106.225 121.492 108.094 124.504C109.967 127.524 112.568 129.879 115.854 131.561C119.15 133.248 122.93 134.074 127.163 134.074C133.425 134.074 138.598 132.517 142.571 129.306C146.567 126.076 148.573 121.775 148.573 116.484C148.573 111.981 147.281 108.217 144.618 105.296C141.996 102.42 137.62 99.8993 131.613 97.6745C129.583 96.8056 127.941 96.042 126.677 95.3837C125.392 94.7147 124.551 94.1818 124.088 93.7854C123.162 92.9927 122.781 92.1599 122.781 91.2641C122.781 89.7414 123.21 88.6818 123.97 87.954C124.769 87.1891 125.781 86.7872 127.104 86.7872C128.795 86.7872 129.895 87.2853 130.6 88.1329C131.335 89.0157 131.788 90.4491 131.788 92.6082V93.6082H132.788H147.414H148.414V92.6082C148.414 87.0105 146.469 82.4608 142.535 79.0857C138.623 75.7289 133.46 74.0928 127.157 74.0928C121.153 74.0928 116.212 75.742 112.459 79.1288C108.713 82.5099 106.832 86.8202 106.832 91.989C106.832 96.0915 108.026 99.5811 110.461 102.41C112.879 105.218 117.201 107.819 123.261 110.278C127.372 112.077 129.86 113.438 130.915 114.367C131.953 115.28 132.359 116.173 132.359 117.05C132.359 118.644 131.923 119.663 131.216 120.302C130.49 120.958 129.302 121.374 127.47 121.374C125.061 121.374 123.57 120.773 122.717 119.803C121.812 118.774 121.253 117.127 121.182 114.698L121.154 113.727H120.183H106.282ZM174.375 173.375H17.625V16.625H174.375V173.375Z" stroke="black" stroke-width="2"/>
</svg>
