<svg width="281" height="281" viewBox="0 0 281 281" fill="none" xmlns="http://www.w3.org/2000/svg">
<rect x="140.5" y="9.19239" width="185.697" height="185.697" rx="18.5" transform="rotate(45 140.5 9.19239)" stroke="black" stroke-width="13"/>
<path d="M156.507 155.792L163.455 162.74C167.36 166.645 167.36 172.977 163.455 176.882L132.436 207.901C128.531 211.806 122.199 211.806 118.294 207.901L111.346 200.953L126.975 185.324L44.4966 102.846L58.4 88.9427L140.878 171.421L156.507 155.792Z" fill="black"/>
<path d="M126.671 128.869L119.915 122.112C116.01 118.207 116.01 111.875 119.915 107.97L150.933 76.9516C154.839 73.0464 161.17 73.0464 165.076 76.9516L171.832 83.7081L156.203 99.3367L237.529 180.663L223.626 194.566L142.3 113.24L126.671 128.869Z" fill="black"/>
</svg>
